<svg xmlns="http://www.w3.org/2000/svg" width="256" height="256" fill="none" viewBox="0 0 80 80"><line x1="40" x2="40" y1="64" y2="45" stroke="#fff" stroke-linecap="round" stroke-width="4"/><path fill="none" stroke="#fff" stroke-linecap="round" stroke-width="3.5" d="M40 45 Q40 33 25 23"/><path fill="none" stroke="#fff" stroke-linecap="round" stroke-width="3.5" d="M40 45 Q40 33 55 23"/><path fill="none" stroke="rgba(255,255,255,0.55)" stroke-linecap="round" stroke-width="2.2" d="M25 23 Q19 16 14 11"/><path fill="none" stroke="rgba(255,255,255,0.55)" stroke-linecap="round" stroke-width="2.2" d="M25 23 Q25 16 30 11"/><path fill="none" stroke="rgba(255,255,255,0.55)" stroke-linecap="round" stroke-width="2.2" d="M55 23 Q51 16 50 11"/><path fill="none" stroke="rgba(255,255,255,0.55)" stroke-linecap="round" stroke-width="2.2" d="M55 23 Q59 16 66 11"/><circle cx="40" cy="64" r="5.5" fill="rgba(255,255,255,0.2)" stroke="#fff" stroke-width="2"/><circle cx="40" cy="45" r="4.5" fill="#fff"/><circle cx="25" cy="23" r="4.5" fill="#fff"/><circle cx="55" cy="23" r="4.5" fill="#fff"/><circle cx="14" cy="11" r="3" fill="rgba(255,255,255,0.55)"/><circle cx="30" cy="11" r="3" fill="rgba(255,255,255,0.55)"/><circle cx="50" cy="11" r="3" fill="rgba(255,255,255,0.55)"/><circle cx="66" cy="11" r="3" fill="rgba(255,255,255,0.55)"/><rect width="22" height="4.5" x="29" y="67" fill="#f59e0b" rx="2.2"/><rect width="5" height="5.5" x="37.5" y="63" fill="#f59e0b" rx="1.5"/><circle cx="40" cy="62" r="2" fill="#fbbf24"/></svg>