<svg xmlns="http://www.w3.org/2000/svg" width="220" height="56" fill="none" viewBox="0 0 220 56"><circle cx="28" cy="28" r="26" fill="#0f172a" stroke="#1e3a5f" stroke-width="1"/><line x1="28" x2="28" y1="46" y2="32" stroke="#3b82f6" stroke-linecap="round" stroke-width="2.8"/><path fill="none" stroke="#3b82f6" stroke-linecap="round" stroke-width="2.4" d="M28 32 Q28 24 18 17"/><path fill="none" stroke="#3b82f6" stroke-linecap="round" stroke-width="2.4" d="M28 32 Q28 24 38 17"/><path fill="none" stroke="#60a5fa" stroke-linecap="round" stroke-width="1.6" d="M18 17 Q14 12 11 9"/><path fill="none" stroke="#60a5fa" stroke-linecap="round" stroke-width="1.6" d="M18 17 Q18 12 21 9"/><path fill="none" stroke="#60a5fa" stroke-linecap="round" stroke-width="1.6" d="M38 17 Q35 12 35 9"/><path fill="none" stroke="#60a5fa" stroke-linecap="round" stroke-width="1.6" d="M38 17 Q41 12 45 9"/><circle cx="28" cy="46" r="4" fill="#1d4ed8" stroke="#3b82f6" stroke-width="1.5"/><circle cx="28" cy="32" r="3.2" fill="#3b82f6"/><circle cx="18" cy="17" r="3.2" fill="#3b82f6"/><circle cx="38" cy="17" r="3.2" fill="#3b82f6"/><circle cx="11" cy="9" r="2.2" fill="#60a5fa"/><circle cx="21" cy="9" r="2.2" fill="#60a5fa"/><circle cx="35" cy="9" r="2.2" fill="#60a5fa"/><circle cx="45" cy="9" r="2.2" fill="#60a5fa"/><rect width="16" height="3" x="20" y="48.5" fill="#f59e0b" rx="1.5"/><rect width="3" height="4" x="26.5" y="45.5" fill="#f59e0b" rx="1"/><circle cx="28" cy="45" r="1.5" fill="#fbbf24"/><text x="66" y="33" fill="#fff" font-family="'Plus Jakarta Sans', system-ui, sans-serif" font-size="22" font-weight="800" letter-spacing="-.5">Study</text><text x="130" y="33" fill="#3b82f6" font-family="'Plus Jakarta Sans', system-ui, sans-serif" font-size="22" font-weight="800" letter-spacing="-.5">Hub</text><text x="67" y="46" fill="#475569" font-family="'Plus Jakarta Sans', system-ui, sans-serif" font-size="9.5" font-weight="500" letter-spacing=".13em">THE GITHUB OF STUDYING</text></svg>